<svg width="286" height="347" viewBox="0 0 286 347" fill="none" xmlns="http://www.w3.org/2000/svg">
<rect x="2" width="282" height="347" rx="20" fill="#F5F5F5"/>
<path d="M143.638 190.5C139.238 190.5 135.538 189.1 132.538 186.3C129.738 183.3 128.338 179.6 128.338 175.2V135H88.1375C83.7375 135 80.0375 133.5 77.0375 130.5C74.2375 127.5 72.8375 123.8 72.8375 119.4C72.8375 115 74.2375 111.4 77.0375 108.6C80.0375 105.6 83.7375 104.1 88.1375 104.1H128.338V63.9C128.338 59.7 129.838 56.1 132.838 53.1C136.038 50.1 139.638 48.6 143.638 48.6C148.238 48.6 151.938 50.1 154.738 53.1C157.538 55.9 158.938 59.5 158.938 63.9V104.1H199.138C203.338 104.1 206.938 105.6 209.938 108.6C213.138 111.6 214.738 115.2 214.738 119.4C214.738 123.8 213.138 127.5 209.938 130.5C206.938 133.5 203.338 135 199.138 135H158.938V175.2C158.938 179.6 157.538 183.3 154.738 186.3C151.938 189.1 148.238 190.5 143.638 190.5Z" fill="#6A205E"/>
<path d="M28.7153 293.604C27.4153 293.604 26.2626 293.301 25.2573 292.694C24.2693 292.07 23.4893 291.221 22.9173 290.146C22.3453 289.054 22.0593 287.806 22.0593 286.402C22.0593 284.981 22.3626 283.733 22.9693 282.658C23.5933 281.566 24.4426 280.717 25.5173 280.11C26.5919 279.486 27.8313 279.174 29.2353 279.174C30.6219 279.174 31.8526 279.486 32.9273 280.11C34.0019 280.717 34.8426 281.566 35.4493 282.658C36.0733 283.733 36.3853 284.981 36.3853 286.402H34.8513C34.8513 287.806 34.5826 289.054 34.0453 290.146C33.5253 291.221 32.8059 292.07 31.8873 292.694C30.9686 293.301 29.9113 293.604 28.7153 293.604ZM29.1833 299.402C27.9526 299.402 26.7999 299.159 25.7253 298.674C24.6506 298.189 23.7406 297.478 22.9953 296.542C22.7699 296.247 22.6833 295.944 22.7353 295.632C22.8046 295.32 22.9779 295.069 23.2553 294.878C23.5673 294.67 23.8879 294.601 24.2173 294.67C24.5639 294.739 24.8413 294.913 25.0493 295.19C25.5173 295.779 26.1066 296.239 26.8173 296.568C27.5279 296.897 28.3339 297.062 29.2353 297.062C30.0673 297.062 30.8299 296.863 31.5233 296.464C32.2339 296.065 32.7973 295.476 33.2133 294.696C33.6293 293.916 33.8373 292.963 33.8373 291.836V288.144L34.6953 285.856L36.3853 286.402V292.018C36.3853 293.387 36.0819 294.627 35.4753 295.736C34.8686 296.863 34.0193 297.755 32.9273 298.414C31.8526 299.073 30.6046 299.402 29.1833 299.402ZM29.2353 291.264C30.1366 291.264 30.9339 291.056 31.6273 290.64C32.3206 290.224 32.8579 289.652 33.2393 288.924C33.6379 288.196 33.8373 287.355 33.8373 286.402C33.8373 285.449 33.6379 284.608 33.2393 283.88C32.8579 283.135 32.3206 282.554 31.6273 282.138C30.9339 281.722 30.1366 281.514 29.2353 281.514C28.3339 281.514 27.5366 281.722 26.8433 282.138C26.1499 282.554 25.6039 283.135 25.2053 283.88C24.8066 284.608 24.6073 285.449 24.6073 286.402C24.6073 287.355 24.8066 288.196 25.2053 288.924C25.6039 289.652 26.1499 290.224 26.8433 290.64C27.5366 291.056 28.3339 291.264 29.2353 291.264ZM46.7802 293.604C45.3762 293.604 44.1369 293.301 43.0622 292.694C41.9875 292.07 41.1382 291.221 40.5142 290.146C39.9075 289.054 39.6042 287.806 39.6042 286.402C39.6042 284.981 39.9075 283.733 40.5142 282.658C41.1382 281.566 41.9875 280.717 43.0622 280.11C44.1369 279.486 45.3762 279.174 46.7802 279.174C48.1669 279.174 49.3975 279.486 50.4722 280.11C51.5469 280.717 52.3875 281.566 52.9942 282.658C53.6182 283.733 53.9302 284.981 53.9302 286.402C53.9302 287.806 53.6269 289.054 53.0202 290.146C52.4135 291.221 51.5729 292.07 50.4982 292.694C49.4235 293.301 48.1842 293.604 46.7802 293.604ZM46.7802 291.264C47.6815 291.264 48.4789 291.056 49.1722 290.64C49.8655 290.224 50.4029 289.652 50.7842 288.924C51.1829 288.196 51.3822 287.355 51.3822 286.402C51.3822 285.449 51.1829 284.608 50.7842 283.88C50.4029 283.135 49.8655 282.554 49.1722 282.138C48.4789 281.722 47.6815 281.514 46.7802 281.514C45.8789 281.514 45.0815 281.722 44.3882 282.138C43.6949 282.554 43.1489 283.135 42.7502 283.88C42.3515 284.608 42.1522 285.449 42.1522 286.402C42.1522 287.355 42.3515 288.196 42.7502 288.924C43.1489 289.652 43.6949 290.224 44.3882 290.64C45.0815 291.056 45.8789 291.264 46.7802 291.264ZM64.3771 293.604C62.9904 293.604 61.7598 293.318 60.6851 292.746C59.6104 292.174 58.7698 291.385 58.1631 290.38C57.5564 289.357 57.2444 288.196 57.2271 286.896H58.5011C58.5011 285.579 58.7698 284.426 59.3071 283.438C59.8618 282.433 60.6158 281.644 61.5691 281.072C62.5398 280.5 63.6491 280.214 64.8971 280.214C66.1451 280.214 67.2458 280.5 68.1991 281.072C69.1698 281.644 69.9238 282.433 70.4611 283.438C71.0158 284.426 71.2931 285.579 71.2931 286.896C71.2931 288.196 70.9984 289.357 70.4091 290.38C69.8198 291.385 69.0051 292.174 67.9651 292.746C66.9251 293.318 65.7291 293.604 64.3771 293.604ZM64.3771 291.264C65.2438 291.264 65.9978 291.082 66.6391 290.718C67.2978 290.337 67.8091 289.817 68.1731 289.158C68.5544 288.499 68.7451 287.745 68.7451 286.896C68.7451 286.047 68.5544 285.301 68.1731 284.66C67.8091 284.001 67.2978 283.49 66.6391 283.126C65.9978 282.745 65.2438 282.554 64.3771 282.554C63.4758 282.554 62.6784 282.745 61.9851 283.126C61.2918 283.49 60.7458 284.001 60.3471 284.66C59.9658 285.301 59.7751 286.047 59.7751 286.896C59.7751 287.745 59.9658 288.499 60.3471 289.158C60.7458 289.817 61.2918 290.337 61.9851 290.718C62.6784 291.082 63.4758 291.264 64.3771 291.264ZM57.2271 286.896L57.2531 283.958C57.2704 281.913 57.8338 280.041 58.9431 278.342C60.0698 276.643 61.8118 275.265 64.1691 274.208L69.0311 272.05C69.3778 271.911 69.6898 271.894 69.9671 271.998C70.2444 272.085 70.4438 272.284 70.5651 272.596C70.6864 272.925 70.7124 273.229 70.6431 273.506C70.5911 273.766 70.3398 274 69.8891 274.208L64.6111 276.626C63.3978 277.181 62.4011 277.839 61.6211 278.602C60.8411 279.365 60.2604 280.223 59.8791 281.176C59.5151 282.112 59.3158 283.126 59.2811 284.218L59.2291 286.896H57.2271ZM81.1723 293.604C79.907 293.604 78.7716 293.292 77.7663 292.668C76.761 292.027 75.9636 291.169 75.3743 290.094C74.8023 289.002 74.5163 287.771 74.5163 286.402C74.5163 285.033 74.8283 283.802 75.4523 282.71C76.0936 281.618 76.9516 280.76 78.0263 280.136C79.1183 279.495 80.3403 279.174 81.6923 279.174C83.0443 279.174 84.2576 279.495 85.3323 280.136C86.407 280.76 87.2563 281.618 87.8803 282.71C88.5216 283.802 88.8423 285.033 88.8423 286.402H87.8283C87.8283 287.771 87.5336 289.002 86.9443 290.094C86.3723 291.169 85.5836 292.027 84.5783 292.668C83.573 293.292 82.4376 293.604 81.1723 293.604ZM81.6923 291.264C82.5763 291.264 83.365 291.056 84.0583 290.64C84.7516 290.207 85.2976 289.626 85.6963 288.898C86.095 288.153 86.2943 287.321 86.2943 286.402C86.2943 285.466 86.095 284.634 85.6963 283.906C85.2976 283.161 84.7516 282.58 84.0583 282.164C83.365 281.731 82.5763 281.514 81.6923 281.514C80.8256 281.514 80.037 281.731 79.3263 282.164C78.633 282.58 78.0783 283.161 77.6623 283.906C77.2636 284.634 77.0643 285.466 77.0643 286.402C77.0643 287.321 77.2636 288.153 77.6623 288.898C78.0783 289.626 78.633 290.207 79.3263 290.64C80.037 291.056 80.8256 291.264 81.6923 291.264ZM87.5163 293.526C87.135 293.526 86.8143 293.405 86.5543 293.162C86.3116 292.902 86.1903 292.581 86.1903 292.2V288.222L86.6843 285.466L88.8423 286.402V292.2C88.8423 292.581 88.7123 292.902 88.4523 293.162C88.2096 293.405 87.8976 293.526 87.5163 293.526ZM94.1152 293.5C93.7339 293.5 93.4132 293.379 93.1532 293.136C92.9106 292.876 92.7892 292.555 92.7892 292.174V280.578C92.8239 280.197 92.9626 279.885 93.2052 279.642C93.4479 279.399 93.7512 279.278 94.1152 279.278C94.5139 279.278 94.8346 279.399 95.0772 279.642C95.3199 279.885 95.4412 280.205 95.4412 280.604V285.076H100.485V285.596C101.439 285.596 102.279 285.761 103.007 286.09C103.753 286.419 104.333 286.879 104.749 287.468C105.165 288.04 105.373 288.707 105.373 289.47C105.373 290.25 105.165 290.943 104.749 291.55C104.333 292.157 103.753 292.633 103.007 292.98C102.279 293.327 101.439 293.5 100.485 293.5H94.1152ZM95.4412 291.03H100.485C101.179 291.03 101.742 290.865 102.175 290.536C102.609 290.189 102.825 289.747 102.825 289.21C102.825 288.638 102.609 288.17 102.175 287.806C101.742 287.442 101.179 287.26 100.485 287.26H95.4412V291.03ZM98.4312 286.48V285.076H100.901C101.335 285.076 101.69 284.911 101.967 284.582C102.245 284.235 102.383 283.802 102.383 283.282C102.383 282.831 102.219 282.459 101.889 282.164C101.56 281.869 101.144 281.722 100.641 281.722H94.1412V279.278H100.641C101.456 279.278 102.175 279.443 102.799 279.772C103.441 280.084 103.943 280.526 104.307 281.098C104.671 281.653 104.853 282.294 104.853 283.022C104.853 284.027 104.472 284.859 103.709 285.518C102.964 286.159 102.028 286.48 100.901 286.48H98.4312ZM114.613 293.63C113.417 293.63 112.342 293.379 111.389 292.876C110.453 292.356 109.708 291.602 109.153 290.614C108.616 289.626 108.347 288.413 108.347 286.974V280.578C108.347 280.197 108.468 279.885 108.711 279.642C108.971 279.382 109.292 279.252 109.673 279.252C110.054 279.252 110.366 279.382 110.609 279.642C110.869 279.885 110.999 280.197 110.999 280.578V286.974C110.999 287.945 111.181 288.751 111.545 289.392C111.909 290.016 112.403 290.484 113.027 290.796C113.651 291.091 114.353 291.238 115.133 291.238C115.878 291.238 116.537 291.091 117.109 290.796C117.698 290.501 118.166 290.103 118.513 289.6C118.86 289.097 119.033 288.534 119.033 287.91H120.671C120.671 288.985 120.402 289.955 119.865 290.822C119.345 291.689 118.626 292.373 117.707 292.876C116.806 293.379 115.774 293.63 114.613 293.63ZM120.359 293.5C119.978 293.5 119.657 293.379 119.397 293.136C119.154 292.876 119.033 292.555 119.033 292.174V280.578C119.033 280.179 119.154 279.859 119.397 279.616C119.657 279.373 119.978 279.252 120.359 279.252C120.758 279.252 121.078 279.373 121.321 279.616C121.564 279.859 121.685 280.179 121.685 280.578V292.174C121.685 292.555 121.564 292.876 121.321 293.136C121.078 293.379 120.758 293.5 120.359 293.5ZM145.024 293.526C144.642 293.526 144.322 293.405 144.062 293.162C143.819 292.902 143.698 292.581 143.698 292.2V284.764C143.698 283.672 143.429 282.866 142.892 282.346C142.354 281.809 141.652 281.54 140.786 281.54C139.884 281.54 139.139 281.852 138.55 282.476C137.978 283.1 137.692 283.897 137.692 284.868H135.534C135.534 283.741 135.776 282.753 136.262 281.904C136.747 281.037 137.423 280.361 138.29 279.876C139.174 279.391 140.179 279.148 141.306 279.148C142.294 279.148 143.169 279.365 143.932 279.798C144.694 280.231 145.284 280.873 145.7 281.722C146.133 282.554 146.35 283.568 146.35 284.764V292.2C146.35 292.581 146.228 292.902 145.986 293.162C145.743 293.405 145.422 293.526 145.024 293.526ZM127.682 293.526C127.3 293.526 126.98 293.405 126.72 293.162C126.477 292.902 126.356 292.581 126.356 292.2V280.63C126.356 280.231 126.477 279.911 126.72 279.668C126.98 279.425 127.3 279.304 127.682 279.304C128.08 279.304 128.401 279.425 128.644 279.668C128.886 279.911 129.008 280.231 129.008 280.63V292.2C129.008 292.581 128.886 292.902 128.644 293.162C128.401 293.405 128.08 293.526 127.682 293.526ZM136.366 293.526C135.984 293.526 135.664 293.405 135.404 293.162C135.161 292.902 135.04 292.581 135.04 292.2V284.764C135.04 283.672 134.771 282.866 134.234 282.346C133.696 281.809 132.994 281.54 132.128 281.54C131.226 281.54 130.481 281.852 129.892 282.476C129.302 283.1 129.008 283.897 129.008 284.868H127.37C127.37 283.741 127.595 282.753 128.046 281.904C128.496 281.037 129.12 280.361 129.918 279.876C130.715 279.391 131.625 279.148 132.648 279.148C133.636 279.148 134.511 279.365 135.274 279.798C136.036 280.231 136.626 280.873 137.042 281.722C137.475 282.554 137.692 283.568 137.692 284.764V292.2C137.692 292.581 137.57 292.902 137.328 293.162C137.085 293.405 136.764 293.526 136.366 293.526ZM157.178 293.734C155.878 293.734 154.743 293.5 153.772 293.032C152.819 292.564 152.073 291.905 151.536 291.056C151.016 290.189 150.756 289.175 150.756 288.014V280.578C150.791 280.214 150.929 279.911 151.172 279.668C151.432 279.408 151.735 279.278 152.082 279.278C152.463 279.278 152.775 279.408 153.018 279.668C153.278 279.911 153.408 280.223 153.408 280.604V283.516H157.672C158.799 283.516 159.804 283.715 160.688 284.114C161.589 284.495 162.3 285.059 162.82 285.804C163.34 286.532 163.6 287.407 163.6 288.43C163.6 289.453 163.331 290.363 162.794 291.16C162.274 291.957 161.537 292.59 160.584 293.058C159.631 293.509 158.495 293.734 157.178 293.734ZM157.152 291.29C158.261 291.29 159.189 291.056 159.934 290.588C160.679 290.103 161.052 289.383 161.052 288.43C161.052 287.529 160.731 286.861 160.09 286.428C159.449 285.977 158.643 285.752 157.672 285.752H153.408V287.962C153.408 288.586 153.573 289.149 153.902 289.652C154.231 290.155 154.673 290.553 155.228 290.848C155.8 291.143 156.441 291.29 157.152 291.29ZM193.393 293.526C193.011 293.526 192.691 293.405 192.431 293.162C192.188 292.902 192.067 292.581 192.067 292.2V284.764C192.067 283.672 191.798 282.866 191.261 282.346C190.723 281.809 190.021 281.54 189.155 281.54C188.253 281.54 187.508 281.852 186.919 282.476C186.347 283.1 186.061 283.897 186.061 284.868H183.903C183.903 283.741 184.145 282.753 184.631 281.904C185.116 281.037 185.792 280.361 186.659 279.876C187.543 279.391 188.548 279.148 189.675 279.148C190.663 279.148 191.538 279.365 192.301 279.798C193.063 280.231 193.653 280.873 194.069 281.722C194.502 282.554 194.719 283.568 194.719 284.764V292.2C194.719 292.581 194.597 292.902 194.355 293.162C194.112 293.405 193.791 293.526 193.393 293.526ZM176.051 293.526C175.669 293.526 175.349 293.405 175.089 293.162C174.846 292.902 174.725 292.581 174.725 292.2V280.63C174.725 280.231 174.846 279.911 175.089 279.668C175.349 279.425 175.669 279.304 176.051 279.304C176.449 279.304 176.77 279.425 177.013 279.668C177.255 279.911 177.377 280.231 177.377 280.63V292.2C177.377 292.581 177.255 292.902 177.013 293.162C176.77 293.405 176.449 293.526 176.051 293.526ZM184.735 293.526C184.353 293.526 184.033 293.405 183.773 293.162C183.53 292.902 183.409 292.581 183.409 292.2V284.764C183.409 283.672 183.14 282.866 182.603 282.346C182.065 281.809 181.363 281.54 180.497 281.54C179.595 281.54 178.85 281.852 178.261 282.476C177.671 283.1 177.377 283.897 177.377 284.868H175.739C175.739 283.741 175.964 282.753 176.415 281.904C176.865 281.037 177.489 280.361 178.287 279.876C179.084 279.391 179.994 279.148 181.017 279.148C182.005 279.148 182.88 279.365 183.643 279.798C184.405 280.231 184.995 280.873 185.411 281.722C185.844 282.554 186.061 283.568 186.061 284.764V292.2C186.061 292.581 185.939 292.902 185.697 293.162C185.454 293.405 185.133 293.526 184.735 293.526ZM205.573 293.604C204.169 293.604 202.93 293.301 201.855 292.694C200.78 292.07 199.931 291.221 199.307 290.146C198.7 289.054 198.397 287.806 198.397 286.402C198.397 284.981 198.7 283.733 199.307 282.658C199.931 281.566 200.78 280.717 201.855 280.11C202.93 279.486 204.169 279.174 205.573 279.174C206.96 279.174 208.19 279.486 209.265 280.11C210.34 280.717 211.18 281.566 211.787 282.658C212.411 283.733 212.723 284.981 212.723 286.402C212.723 287.806 212.42 289.054 211.813 290.146C211.206 291.221 210.366 292.07 209.291 292.694C208.216 293.301 206.977 293.604 205.573 293.604ZM205.573 291.264C206.474 291.264 207.272 291.056 207.965 290.64C208.658 290.224 209.196 289.652 209.577 288.924C209.976 288.196 210.175 287.355 210.175 286.402C210.175 285.449 209.976 284.608 209.577 283.88C209.196 283.135 208.658 282.554 207.965 282.138C207.272 281.722 206.474 281.514 205.573 281.514C204.672 281.514 203.874 281.722 203.181 282.138C202.488 282.554 201.942 283.135 201.543 283.88C201.144 284.608 200.945 285.449 200.945 286.402C200.945 287.355 201.144 288.196 201.543 288.924C201.942 289.652 202.488 290.224 203.181 290.64C203.874 291.056 204.672 291.264 205.573 291.264ZM217.996 293.5C217.615 293.5 217.294 293.379 217.034 293.136C216.791 292.876 216.67 292.555 216.67 292.174V280.578C216.705 280.197 216.843 279.885 217.086 279.642C217.329 279.399 217.632 279.278 217.996 279.278C218.395 279.278 218.715 279.399 218.958 279.642C219.201 279.885 219.322 280.205 219.322 280.604V285.076H224.366V285.596C225.319 285.596 226.16 285.761 226.888 286.09C227.633 286.419 228.214 286.879 228.63 287.468C229.046 288.04 229.254 288.707 229.254 289.47C229.254 290.25 229.046 290.943 228.63 291.55C228.214 292.157 227.633 292.633 226.888 292.98C226.16 293.327 225.319 293.5 224.366 293.5H217.996ZM219.322 291.03H224.366C225.059 291.03 225.623 290.865 226.056 290.536C226.489 290.189 226.706 289.747 226.706 289.21C226.706 288.638 226.489 288.17 226.056 287.806C225.623 287.442 225.059 287.26 224.366 287.26H219.322V291.03ZM222.312 286.48V285.076H224.782C225.215 285.076 225.571 284.911 225.848 284.582C226.125 284.235 226.264 283.802 226.264 283.282C226.264 282.831 226.099 282.459 225.77 282.164C225.441 281.869 225.025 281.722 224.522 281.722H218.022V279.278H224.522C225.337 279.278 226.056 279.443 226.68 279.772C227.321 280.084 227.824 280.526 228.188 281.098C228.552 281.653 228.734 282.294 228.734 283.022C228.734 284.027 228.353 284.859 227.59 285.518C226.845 286.159 225.909 286.48 224.782 286.48H222.312ZM238.442 293.604C237.176 293.604 236.041 293.292 235.036 292.668C234.03 292.027 233.233 291.169 232.644 290.094C232.072 289.002 231.786 287.771 231.786 286.402C231.786 285.033 232.098 283.802 232.722 282.71C233.363 281.618 234.221 280.76 235.296 280.136C236.388 279.495 237.61 279.174 238.962 279.174C240.314 279.174 241.527 279.495 242.602 280.136C243.676 280.76 244.526 281.618 245.15 282.71C245.791 283.802 246.112 285.033 246.112 286.402H245.098C245.098 287.771 244.803 289.002 244.214 290.094C243.642 291.169 242.853 292.027 241.848 292.668C240.842 293.292 239.707 293.604 238.442 293.604ZM238.962 291.264C239.846 291.264 240.634 291.056 241.328 290.64C242.021 290.207 242.567 289.626 242.966 288.898C243.364 288.153 243.564 287.321 243.564 286.402C243.564 285.466 243.364 284.634 242.966 283.906C242.567 283.161 242.021 282.58 241.328 282.164C240.634 281.731 239.846 281.514 238.962 281.514C238.095 281.514 237.306 281.731 236.596 282.164C235.902 282.58 235.348 283.161 234.932 283.906C234.533 284.634 234.334 285.466 234.334 286.402C234.334 287.321 234.533 288.153 234.932 288.898C235.348 289.626 235.902 290.207 236.596 290.64C237.306 291.056 238.095 291.264 238.962 291.264ZM244.786 293.526C244.404 293.526 244.084 293.405 243.824 293.162C243.581 292.902 243.46 292.581 243.46 292.2V288.222L243.954 285.466L246.112 286.402V292.2C246.112 292.581 245.982 292.902 245.722 293.162C245.479 293.405 245.167 293.526 244.786 293.526ZM251.385 299.584C251.003 299.584 250.683 299.454 250.423 299.194C250.18 298.951 250.059 298.639 250.059 298.258V286.402C250.076 285.033 250.397 283.802 251.021 282.71C251.645 281.618 252.494 280.76 253.569 280.136C254.643 279.495 255.857 279.174 257.209 279.174C258.578 279.174 259.8 279.495 260.875 280.136C261.949 280.76 262.799 281.618 263.423 282.71C264.064 283.802 264.385 285.033 264.385 286.402C264.385 287.771 264.09 289.002 263.501 290.094C262.929 291.169 262.14 292.027 261.135 292.668C260.129 293.292 258.994 293.604 257.729 293.604C256.706 293.604 255.761 293.396 254.895 292.98C254.045 292.547 253.317 291.966 252.711 291.238V298.258C252.711 298.639 252.589 298.951 252.347 299.194C252.104 299.454 251.783 299.584 251.385 299.584ZM257.209 291.264C258.093 291.264 258.881 291.056 259.575 290.64C260.268 290.207 260.814 289.626 261.213 288.898C261.629 288.153 261.837 287.321 261.837 286.402C261.837 285.466 261.629 284.634 261.213 283.906C260.814 283.161 260.268 282.58 259.575 282.164C258.881 281.731 258.093 281.514 257.209 281.514C256.342 281.514 255.553 281.731 254.843 282.164C254.149 282.58 253.603 283.161 253.205 283.906C252.806 284.634 252.607 285.466 252.607 286.402C252.607 287.321 252.806 288.153 253.205 288.898C253.603 289.626 254.149 290.207 254.843 290.64C255.553 291.056 256.342 291.264 257.209 291.264Z" fill="#6A205E"/>
</svg>
