<svg width="640" height="540" viewBox="0 0 640 540" fill="none" xmlns="http://www.w3.org/2000/svg">
<g filter="url(#filter0_d_252_1740)">
<rect x="20" y="20" width="600" height="500" rx="20" fill="#D9D9D9" shape-rendering="crispEdges"/>
<g clip-path="url(#clip0_252_1740)">
<path d="M388.75 313.75C388.75 317.065 387.433 320.245 385.089 322.589C382.745 324.933 379.565 326.25 376.25 326.25H263.75C260.435 326.25 257.255 324.933 254.911 322.589C252.567 320.245 251.25 317.065 251.25 313.75V245C251.25 241.685 252.567 238.505 254.911 236.161C257.255 233.817 260.435 232.5 263.75 232.5H288.75L301.25 213.75H338.75L351.25 232.5H376.25C379.565 232.5 382.745 233.817 385.089 236.161C387.433 238.505 388.75 241.685 388.75 245V313.75Z" stroke="#6A205E" stroke-width="15" stroke-linecap="round" stroke-linejoin="round"/>
<path d="M320 301.25C333.807 301.25 345 290.057 345 276.25C345 262.443 333.807 251.25 320 251.25C306.193 251.25 295 262.443 295 276.25C295 290.057 306.193 301.25 320 301.25Z" stroke="#6A205E" stroke-width="15" stroke-linecap="round" stroke-linejoin="round"/>
</g>
</g>
<defs>
<filter id="filter0_d_252_1740" x="0" y="0" width="640" height="540" filterUnits="userSpaceOnUse" color-interpolation-filters="sRGB">
<feFlood flood-opacity="0" result="BackgroundImageFix"/>
<feColorMatrix in="SourceAlpha" type="matrix" values="0 0 0 0 0 0 0 0 0 0 0 0 0 0 0 0 0 0 127 0" result="hardAlpha"/>
<feOffset/>
<feGaussianBlur stdDeviation="10"/>
<feComposite in2="hardAlpha" operator="out"/>
<feColorMatrix type="matrix" values="0 0 0 0 0 0 0 0 0 0 0 0 0 0 0 0 0 0 1 0"/>
<feBlend mode="normal" in2="BackgroundImageFix" result="effect1_dropShadow_252_1740"/>
<feBlend mode="normal" in="SourceGraphic" in2="effect1_dropShadow_252_1740" result="shape"/>
</filter>
<clipPath id="clip0_252_1740">
<rect width="150" height="150" fill="white" transform="translate(245 195)"/>
</clipPath>
</defs>
</svg>
