<svg width="46" height="46" viewBox="0 0 46 46" fill="none" xmlns="http://www.w3.org/2000/svg">
<path d="M12.1475 4.25L6.52246 11.75V38C6.52246 38.9946 6.91755 39.9484 7.62081 40.6516C8.32407 41.3549 9.2779 41.75 10.2725 41.75H36.5225C37.517 41.75 38.4708 41.3549 39.1741 40.6516C39.8774 39.9484 40.2725 38.9946 40.2725 38V11.75L34.6475 4.25H12.1475Z" stroke="#6A205E" stroke-width="3" stroke-linecap="round" stroke-linejoin="round"/>
<path d="M6.52246 11.75H40.2725" stroke="#6A205E" stroke-width="3" stroke-linecap="round" stroke-linejoin="round"/>
<path d="M30.8975 19.25C30.8975 21.2391 30.1073 23.1468 28.7008 24.5533C27.2942 25.9598 25.3866 26.75 23.3975 26.75C21.4083 26.75 19.5007 25.9598 18.0942 24.5533C16.6876 23.1468 15.8975 21.2391 15.8975 19.25" stroke="#6A205E" stroke-width="3" stroke-linecap="round" stroke-linejoin="round"/>
</svg>
