<svg width="80" height="80" viewBox="0 0 80 80" fill="none" xmlns="http://www.w3.org/2000/svg">
<path d="M56.6665 9.9997C57.542 9.12423 58.5813 8.42976 59.7252 7.95595C60.8691 7.48215 62.0951 7.23828 63.3332 7.23828C64.5713 7.23828 65.7973 7.48215 66.9411 7.95595C68.085 8.42976 69.1244 9.12423 69.9998 9.9997C70.8753 10.8752 71.5698 11.9145 72.0436 13.0584C72.5174 14.2023 72.7613 15.4283 72.7613 16.6664C72.7613 17.9045 72.5174 19.1305 72.0436 20.2743C71.5698 21.4182 70.8753 22.4576 69.9998 23.333L24.9998 68.333L6.6665 73.333L11.6665 54.9997L56.6665 9.9997Z" stroke="#6A205E" stroke-width="7" stroke-linecap="round" stroke-linejoin="round"/>
</svg>
