<svg width="144" height="96" viewBox="0 0 144 96" fill="none" xmlns="http://www.w3.org/2000/svg">
<path fill-rule="evenodd" clip-rule="evenodd" d="M94.307 3.06245C92.5318 4.79174 91.0506 5.83152 88.8146 6.91816C85.7389 8.4131 83.1649 9.03841 80.087 9.03841H78.2564L77.5757 11.7889L76.8949 14.5395L75.3944 14.646C72.4644 14.8542 70.884 15.2445 68.7592 16.2849C67.1722 17.0618 65.9832 18.0329 64.7757 19.538C63.9534 20.5631 62.3643 23.0033 62.3643 23.2411C62.3643 23.2795 62.8046 23.4982 63.343 23.727L64.3216 24.143L65.5072 23.0337C67.9218 20.7748 69.4921 20.1831 73.7055 19.9448C75.008 19.8711 75.4764 19.8909 75.4764 20.0197C75.4764 20.3341 70.8048 38.9058 70.263 40.7452C69.503 43.3258 68.9389 44.3091 67.9105 44.8464C67.2349 45.1994 66.7401 45.0969 64.8509 44.2125C60.3439 42.1026 58.1964 41.8093 55.7622 42.9709C54.428 43.6078 52.7575 45.2197 52.0725 46.5314C51.4682 47.6881 50.8461 49.5832 51.0197 49.7375C51.0836 49.7943 51.4752 49.9211 51.8896 50.0189C52.3041 50.1169 52.7511 50.229 52.883 50.268C53.0495 50.3175 53.2067 50.1527 53.398 49.7285C53.5494 49.3925 53.9335 48.8827 54.2515 48.5955C55.078 47.8488 55.5865 47.8899 58.2721 48.9215C59.4867 49.3881 60.6838 49.7981 60.9325 49.8328C61.2288 49.8741 63.6511 49.1949 67.9627 47.8616C74.257 45.9149 78.3615 44.45 80.4578 43.4019C83.0734 42.094 85.5826 39.9569 86.6697 38.1111C87.6539 36.44 88.127 34.9271 89.9883 27.5009C90.9856 23.522 91.8668 20.1819 91.9465 20.0782C92.0549 19.9377 92.9218 19.8898 95.3522 19.8898H98.6128L100.232 17.3302C101.123 15.9224 101.851 14.7355 101.851 14.6927C101.851 14.6499 99.9184 14.6148 97.556 14.6148C95.1935 14.6148 93.2606 14.5796 93.2606 14.5363C93.2606 14.3 94.5248 9.3965 94.6109 9.29929C94.6672 9.23539 95.0139 9.29116 95.381 9.42303C98.1572 10.4194 100.704 10.2646 103.342 8.93924C105.891 7.65862 107.398 5.7548 108.305 2.67074L108.604 1.65342H107.423H106.241L105.614 2.54731C104.453 4.20245 103.204 4.70885 101.275 4.30659C100.071 4.0555 98.2049 3.14609 96.8561 2.15304C96.3702 1.7954 95.9558 1.50497 95.9353 1.50783C95.9148 1.51055 95.1821 2.21016 94.307 3.06245ZM87.3828 10.6979C87.3828 10.9912 82.2397 31.436 81.7336 33.1548C80.7027 36.6551 79.7105 38.4382 77.7983 40.227C76.8846 41.0817 74.9153 42.4969 74.6396 42.4969C74.5813 42.4969 74.7991 42.2086 75.1232 41.8564C77.3746 39.4104 77.8653 37.9681 81.7251 22.452C83.1789 16.608 84.4238 11.7294 84.4915 11.6106C84.5593 11.4919 85.1866 11.2106 85.8857 10.9859C87.3914 10.5017 87.3828 10.5033 87.3828 10.6979ZM3.28438 66.4606V67.2143L71.4448 67.1765L139.605 67.1386L139.651 66.4227L139.697 65.7069H71.4907H3.28438V66.4606ZM9.53901 72.3558L6.67545 74.7636L6.60009 79.0481C6.5273 83.1842 6.51343 83.3439 6.1998 83.6573L5.87471 83.982L5.50742 83.3975C4.54541 81.8666 4.11226 79.5046 4.47442 77.764C4.85603 75.9302 5.93921 74.2645 7.5621 73.0165C8.10105 72.602 8.54596 72.1886 8.55063 72.0979C8.55545 72.0071 8.42343 71.8099 8.25734 71.6595C7.87634 71.3148 7.6037 71.4272 6.06867 72.5624C3.05726 74.7895 1.6835 77.1358 1.52344 80.3261C1.37574 83.27 2.20753 85.4605 4.24805 87.501C6.15232 89.4053 8.26593 90.2646 11.0597 90.2707C14.2853 90.2776 17.2459 88.7837 19.3855 86.0695L20.026 85.2569L19.6922 84.9015C19.5084 84.706 19.3059 84.5461 19.2418 84.5461C19.1778 84.5461 18.6893 84.876 18.1565 85.2793C16.5089 86.5265 14.6267 87.259 13.0696 87.259H12.3682L12.2724 86.5596C12.2196 86.1752 12.1765 82.9573 12.1765 79.409V72.9577L13.0045 73.3239C14 73.7642 15.9753 74.2976 16.6099 74.2976C16.9793 74.2976 17.2931 74.0739 18.2302 73.1422C19.3877 71.9915 19.3916 71.9848 19.1717 71.5597C18.977 71.1829 18.8669 71.1323 18.2388 71.1295C17.0336 71.1246 15.507 70.8464 14.1037 70.3763C13.3658 70.1291 12.6812 69.9315 12.5824 69.9374C12.4835 69.9431 11.114 71.0314 9.53901 72.3558ZM42.2908 70.7513C41.5045 70.9678 40.7095 71.4167 40.289 71.8813C39.9436 72.2631 39.7255 72.2676 39.393 71.9C39.2499 71.7419 38.7851 71.4629 38.36 71.2801L37.5872 70.9476L37.309 71.2913C37.0329 71.6323 37.0353 71.6394 37.6423 72.2579C37.9786 72.6007 38.3209 73.1146 38.4027 73.3999C38.6157 74.1428 38.5997 86.0204 38.3849 86.6368C38.2933 86.8997 38.0857 87.1856 37.9237 87.2722C37.7269 87.3776 37.6446 87.5545 37.6758 87.8054C37.7133 88.1069 37.8966 88.2516 38.6035 88.5379C39.0878 88.7341 39.8871 89.2113 40.3795 89.598C40.925 90.0267 41.365 90.2669 41.5056 90.2129C41.7797 90.1077 44.4115 88.1215 44.4212 88.0125C44.4248 87.9711 44.2637 87.7337 44.0631 87.485C43.7699 87.1218 43.6605 87.07 43.5062 87.2213C43.2195 87.5024 42.9589 87.4531 42.3748 87.0076L41.8476 86.6053L41.895 80.037C41.9488 72.5872 41.9293 72.7132 43.1763 71.8343C43.6795 71.4795 43.8264 71.2803 43.8264 70.9528C43.8264 70.5885 43.7689 70.5315 43.412 70.5431C43.1841 70.5507 42.6795 70.6442 42.2908 70.7513ZM60.8247 70.9582C60.5524 71.1939 59.8039 71.7731 59.1616 72.2453L57.9936 73.1038V74.6049V76.1061H57.3907H56.7878V77.1611V78.2161H57.3907H57.9936V82.2953C57.9936 86.5108 57.9571 86.794 57.3515 87.2758C57.1226 87.458 57.0712 87.6184 57.1459 87.9164C57.2008 88.1351 57.3393 88.3139 57.4537 88.3139C57.783 88.3139 59.358 89.1885 60.0504 89.7558C60.3976 90.0404 60.7578 90.2732 60.8506 90.2732C61.0253 90.2732 64.2158 87.7663 64.2899 87.5708C64.3128 87.5102 64.1894 87.2798 64.0156 87.0588L63.6994 86.657L63.206 87.0333C62.5908 87.5025 62.4966 87.5015 61.9237 87.0195L61.46 86.6293V82.4227V78.2161H62.4396H63.4193V77.1611V76.1061H62.4396H61.46V74.9004C61.46 73.5244 61.4262 73.549 62.8134 73.9181C63.2676 74.0389 63.6818 74.089 63.7336 74.0293C63.8578 73.8866 64.3409 71.401 64.2601 71.3204C64.2137 71.2738 61.5429 70.5505 61.3522 70.5327C61.3343 70.5311 61.0969 70.7226 60.8247 70.9582ZM70.9477 70.7645C70.8406 70.8937 70.12 71.475 69.3467 72.0561L67.9407 73.1129V74.6095V76.1061H67.3378H66.735V77.1611V78.2161H67.3378H67.9407V82.2953C67.9407 86.5167 67.9081 86.7669 67.2929 87.265C67.0662 87.4485 67.0162 87.6098 67.0919 87.9117C67.1475 88.1329 67.2864 88.3139 67.4008 88.3139C67.7301 88.3139 69.3051 89.1885 69.9975 89.7558C70.3447 90.0404 70.7066 90.2732 70.8015 90.2732C70.9871 90.2732 74.2539 87.6975 74.2643 87.5431C74.2678 87.4921 74.1302 87.2718 73.9587 87.0537L73.6466 86.657L73.1531 87.0333C72.5515 87.4923 72.5278 87.493 71.9073 87.0706L71.4092 86.7315L71.4082 82.4738L71.4071 78.2161H72.3867H73.3664V77.1611V76.1061H72.3867H71.4071V74.9004C71.4071 73.5244 71.3733 73.549 72.7605 73.9181C73.2148 74.0389 73.6307 74.089 73.6848 74.0293C73.798 73.9043 74.2707 71.3842 74.195 71.3083C74.143 71.2561 71.4045 70.5381 71.2371 70.5327C71.1851 70.5311 71.0549 70.6354 70.9477 70.7645ZM50.9947 70.9668C50.919 71.089 50.1564 74.1871 50.1564 74.3717C50.1564 74.4137 50.3956 74.4483 50.6881 74.4483C51.1995 74.4483 51.2621 74.3835 52.3261 72.7527C52.9345 71.8203 53.4034 71.0064 53.368 70.9442C53.2762 70.7829 51.0955 70.8037 50.9947 70.9668ZM124.535 71.0195C124.475 71.1951 124.007 73.0976 123.793 74.0338C123.703 74.4294 123.725 74.4483 124.267 74.4472C124.826 74.4462 124.852 74.4198 125.91 72.7517C126.501 71.8197 126.955 71.0064 126.918 70.9442C126.8 70.7427 124.606 70.812 124.535 71.0195ZM10.8713 75.6163C10.9254 76.9219 10.97 80.0493 10.9703 82.5659L10.9708 87.1419L10.4056 87.044C9.67179 86.9171 7.87604 86.0284 7.20295 85.459L6.67545 85.0127L8.06337 83.6114C8.82689 82.8406 9.55589 81.9579 9.68355 81.6497C9.87043 81.1989 9.9158 80.3911 9.9158 77.5148C9.9158 74.052 9.92605 73.9292 10.2435 73.5913C10.4237 73.3996 10.6166 73.2426 10.6721 73.2426C10.7275 73.2426 10.8172 74.3107 10.8713 75.6163ZM27.2818 75.9015C26.5394 76.4707 25.813 76.707 24.8017 76.7081C23.742 76.7094 23.7067 77.0811 24.5926 78.9135C24.9754 79.7052 25.2886 80.467 25.2886 80.6063C25.2886 80.7456 24.9845 81.2651 24.6127 81.7609C22.485 84.5983 22.2133 86.7483 23.7277 88.7628C24.366 89.6119 25.0945 90.2732 25.3917 90.2732C25.4644 90.2732 26.2958 89.6628 27.2396 88.9168C28.1834 88.1708 29.0046 87.5604 29.0646 87.5604C29.1246 87.5604 29.2198 87.8068 29.2764 88.1081C29.3874 88.6998 30.7317 90.2732 31.1261 90.2732C31.3458 90.2732 34.4822 87.7494 34.4822 87.5724C34.4822 87.4962 34.1622 86.9703 33.9372 86.6766C33.9141 86.6464 33.7129 86.7651 33.4902 86.9403C33.0074 87.32 32.7387 87.3446 32.6144 87.0205C32.564 86.8894 32.5229 84.9276 32.5229 82.6608V78.5394L33.0504 77.5275C33.3405 76.9708 33.5779 76.4629 33.5779 76.3987C33.5779 76.3344 33.3913 76.2169 33.1634 76.1375C32.8133 76.0154 32.6843 76.0532 32.3328 76.3809C31.9247 76.761 31.8983 76.7649 30.9764 76.5801C30.4592 76.4764 29.5614 76.1702 28.9811 75.8995L27.9261 75.4073L27.2818 75.9015ZM49.0128 76.3515C47.2008 77.8488 47.2962 77.6749 47.9286 78.3282L48.4764 78.8943L48.5262 83.4911C48.5706 87.5947 48.6057 88.1482 48.8541 88.6496C49.2065 89.3608 50.2568 90.3218 50.5863 90.2345C50.8912 90.1537 53.9243 87.8586 53.9243 87.7088C53.9243 87.6495 53.7832 87.4216 53.6106 87.2023L53.297 86.8036L52.8715 87.1066C52.2728 87.533 52.0185 87.4886 51.9085 86.9387C51.8566 86.6796 51.8143 84.7753 51.8143 82.7068V78.946L52.4212 78.3267C52.9042 77.8341 52.9889 77.6716 52.8357 77.5314C52.7299 77.4345 52.0948 76.9078 51.4242 76.3607L50.2054 75.366L49.0128 76.3515ZM93.007 76.6879C92.1628 77.4041 91.4692 78.0579 91.4655 78.1408C91.4619 78.2236 91.5844 78.4548 91.7378 78.6544L92.0168 79.0173L92.4997 78.6735C93.2816 78.1168 93.33 78.2916 93.3857 81.8782C93.4477 85.867 93.3756 86.5147 92.7966 87.1741C92.5545 87.4499 92.3563 87.7762 92.3563 87.8992C92.3563 88.035 92.7048 88.2499 93.2428 88.4461C93.7304 88.6238 94.584 89.1204 95.1399 89.5494C96.321 90.4613 96.0149 90.5466 98.3947 88.6422L100.02 87.3418L99.7727 86.9236C99.4605 86.3952 99.3131 86.3996 98.611 86.9575C98.2981 87.2062 97.979 87.4097 97.902 87.4097C97.825 87.4097 97.5291 87.2321 97.2444 87.0149L96.727 86.6204V83.0112C96.727 80.9951 96.7908 79.2827 96.8716 79.1319C96.9511 78.9832 97.1771 78.7563 97.3736 78.6274C97.7234 78.3983 97.7469 78.4139 98.4725 79.3542C98.8801 79.8827 99.2719 80.3175 99.3428 80.3205C99.4798 80.3264 99.9669 79.9368 101.148 78.8764L101.877 78.2223L100.705 76.8252C100.061 76.0567 99.5133 75.4005 99.4884 75.3667C99.4636 75.3331 98.9508 75.7357 98.3489 76.2614C96.6051 77.7842 96.6946 77.7222 96.6056 77.4657C96.5109 77.1931 95.0889 75.6745 94.7714 75.5069C94.6053 75.4193 94.1167 75.7462 93.007 76.6879ZM111.53 76.7156C110.605 77.458 109.815 78.0654 109.774 78.0654C109.734 78.0654 109.628 77.7992 109.541 77.4742C109.372 76.8475 108.06 75.5033 107.617 75.5033C107.443 75.5033 105.27 77.1161 104.387 77.8996C104.331 77.9494 104.441 78.1837 104.632 78.4206C104.976 78.8485 104.98 78.8494 105.392 78.5796C106.168 78.071 106.222 78.3542 106.222 82.9629V87.0492L105.7 87.5546C105.413 87.8327 105.215 88.1185 105.259 88.1895C105.417 88.4458 107.764 90.2732 107.934 90.2732C108.03 90.2732 108.708 89.7911 109.441 89.2017L110.772 88.1301L110.23 87.5752L109.688 87.0202V83.3833V79.7466L110.51 79.0443C111.399 78.2853 111.656 78.2574 112.213 78.8592C112.51 79.1792 112.528 79.4072 112.593 83.4911C112.633 86.0844 112.728 87.9928 112.831 88.307C113.016 88.8754 114.298 90.2732 114.633 90.2732C114.748 90.2732 115.547 89.6933 116.409 88.9846L117.975 87.6959L117.647 87.2514C117.466 87.0068 117.291 86.8068 117.257 86.8068C117.224 86.8068 117.018 86.9468 116.801 87.1179C116.079 87.6858 116.018 87.3708 116.019 83.0479C116.02 80.9291 116.087 78.956 116.168 78.663C116.249 78.37 116.588 77.8651 116.92 77.5409L117.523 76.9518L117.197 76.6042C116.763 76.1432 116.657 76.1611 115.996 76.806L115.434 77.3552L114.322 76.3605L113.211 75.3658L111.53 76.7156ZM122.492 76.4351C121.791 77.0154 121.161 77.5444 121.091 77.611C121.021 77.6775 121.201 77.9941 121.49 78.3144L122.016 78.897L122.078 83.4171C122.132 87.3512 122.175 88.0207 122.412 88.5812C122.679 89.2104 123.732 90.2732 124.089 90.2732C124.34 90.2732 127.473 87.857 127.473 87.6632C127.473 87.5759 127.329 87.3515 127.153 87.1645L126.834 86.8244L126.411 87.1373C125.464 87.8374 125.367 87.4158 125.364 82.5926L125.363 79.0565L126.003 78.3989L126.644 77.7415L126.041 77.2244C125.709 76.94 125.062 76.4088 124.602 76.0437L123.766 75.3803L122.492 76.4351ZM81.4486 76.1313C80.9618 76.4766 79.9783 77.0113 79.2632 77.3194L77.9632 77.8794L77.8878 82.3054C77.8135 86.6668 77.725 87.4097 77.2797 87.4097C77.0673 87.4097 77.1017 87.9738 77.3226 88.1158C77.4263 88.1824 77.9858 88.3173 78.566 88.4155C79.3087 88.5412 80.1175 88.8467 81.298 89.4475L82.9748 90.301L83.8601 89.6972C84.3469 89.3652 85.3557 88.8253 86.1017 88.4977L87.4581 87.9019L87.4978 82.7062L87.5374 77.5103L86.2167 77.1129C85.4903 76.8944 84.3637 76.4428 83.713 76.1094C83.0624 75.7761 82.4859 75.5033 82.432 75.5033C82.378 75.5033 81.9355 75.7859 81.4486 76.1313ZM135.192 75.9393C134.6 76.4457 133.795 76.709 132.84 76.709C132.258 76.709 132.112 76.767 131.983 77.049C131.855 77.3302 131.961 77.672 132.597 79.031L133.366 80.6734L132.967 81.2156C132.012 82.5124 131.258 83.7711 131.017 84.4707C130.647 85.545 130.663 86.8688 131.057 87.7531C131.393 88.5075 132.956 90.2732 133.288 90.2732C133.393 90.2732 134.248 89.6637 135.186 88.9186C136.125 88.1736 136.927 87.5632 136.97 87.5622C137.013 87.5613 137.165 87.8904 137.308 88.2939C137.569 89.0277 138.708 90.2763 139.112 90.2704C139.378 90.2666 142.394 87.7277 142.39 87.5106C142.388 87.4137 142.266 87.178 142.119 86.9869L141.852 86.6397L141.458 86.9492C140.947 87.3512 140.642 87.3415 140.529 86.9198C140.479 86.7334 140.437 84.8041 140.436 82.6326L140.434 78.6845L141.029 77.5353L141.623 76.3861L141.142 76.1769C140.689 75.9803 140.642 75.9901 140.353 76.3384C140.17 76.5587 139.887 76.709 139.653 76.709C139.16 76.709 137.375 76.1643 136.635 75.7877C135.91 75.419 135.784 75.4323 135.192 75.9393ZM27.5261 78.6612L29.0565 79.1334V80.408C29.0565 81.1089 29.011 81.6825 28.9555 81.6825C28.8999 81.6825 28.3856 81.4664 27.8126 81.2024C26.7897 80.7308 26.7603 80.7009 26.1805 79.5478C25.5516 78.2971 25.4678 77.9863 25.7929 78.1111C25.9046 78.1539 26.6845 78.4013 27.5261 78.6612ZM135.423 78.6512L136.968 79.1291V80.422C136.968 81.3962 136.921 81.6961 136.779 81.639C134.704 80.8039 134.705 80.8051 134.084 79.4538C133.435 78.0414 133.424 78.0044 133.69 78.1032C133.793 78.1418 134.573 78.3885 135.423 78.6512ZM83.109 79.1192L84.0671 79.5537V83.4165C84.0671 87.0284 84.0499 87.2739 83.803 87.1955C83.6577 87.1494 83.0644 86.9114 82.4843 86.6668L81.4296 86.2219L81.3893 82.3528L81.3491 78.4836L81.75 78.5842C81.9705 78.6396 82.5821 78.8803 83.109 79.1192ZM27.7546 82.4433L29.0565 83.0534V84.535V86.0166L28.2398 86.6466C27.296 87.3749 27.1102 87.3384 26.4321 86.2929C25.8285 85.3619 25.6734 84.6282 25.8558 83.5665C26.0054 82.6955 26.2734 81.8333 26.3944 81.8333C26.4264 81.8333 27.0384 82.1078 27.7546 82.4433ZM135.672 82.4292L136.968 83.0251V84.5157V86.0061L136.225 86.6324C135.816 86.9771 135.423 87.259 135.35 87.259C135.098 87.259 134.269 86.2758 134.015 85.6765C133.684 84.8958 133.684 83.6218 134.016 82.6245C134.161 82.1892 134.301 81.8333 134.327 81.8333C134.354 81.8333 134.959 82.1014 135.672 82.4292ZM3.28438 93.7398V94.4935L71.4448 94.4557L139.605 94.4179L139.651 93.702L139.697 92.9861H71.4907H3.28438V93.7398Z" fill="black"/>
</svg>
